{"title":"Extant.S02E05.HDTV.480p.x264.AAC-VYTO [P2PDL]","uid":12172108,"size":158279096,"categoryP":"video","categoryS":"hd___tv_shows","magnet":"?xt=urn:btih:858fc46dd58a700dd3a4dc8385345b58276213d5&amp;dn=Extant.S02E05.HDTV.480p.x264.AAC-VYTO+%5BP2PDL%5D&amp;tr=udp%3A%2F%2Ftracker.openbittorrent.com%3A80&amp;tr=udp%3A%2F%2Fopen.demonii.com%3A1337&amp;tr=udp%3A%2F%2Ftracker.coppersurfer.tk%3A6969&amp;tr=udp%3A%2F%2Fexodus.desync.com%3A6969","seeders":1,"leechers":0,"uploader":"ValidusVyto","files":6,"time":1438239118,"description":"____    ____ ____    ____ .___________.  ______   \n     /   /      /   / |           | /  __    \n    /   /      /   /  `---|  |----`|  |  |  | \n        /     _    _/       |  |     |  |  |  | \n       /        |  |         |  |     |  `--'  | \n    __/         |__|         |__|      ______/  \n                                                  \nPresenting Small Encodes with quality for years!\n                                                                                                   \n                                                                                                   \n\nExtant.S02E05.HDTV.480p.x264.AAC-VYTO\n\n\nGeneral\nFormat                         : MPEG-4B\nDuration                       : 43mn 28s\nOverall bit rate               : 468 Kbps\n\nVideo\nFormat                         : AVC\nBit rate                       : 433 Kbps\nWidth                          : 720 pixels\nHeight                         : 400 pixels\nDisplay aspect ratio           : 16:9\nFrame rate mode                : Constant\nFrame rate                     : 23.976 fps\nBit depth                      : 8 bits\nStream size                    : 135 MiB (92%)\nWriting library                : x264 core 146 r2538 121396c\n\nAudio\nFormat                         : AAC\nBit rate mode                  : Variable\nBit rate                       : 32.0 Kbps\nChannel(s)                     : 2 channels\nChannel positions              : Front: L R\nSampling rate                  : 48.0 KHz \nStream size                    : 9.95 MiB (7%)\n\n\n\nScreenshots:\n &lt;a href=&quot;\nhttp://ultraimg.com/image/DNm0&quot; rel=&quot;nofollow&quot; target=&quot;_NEW&quot;&gt;\nhttp://ultraimg.com/image/DNm0&lt;/a&gt; &lt;a href=&quot;\nhttp://ultraimg.com/image/DNmG&quot; rel=&quot;nofollow&quot; target=&quot;_NEW&quot;&gt;\nhttp://ultraimg.com/image/DNmG&lt;/a&gt; &lt;a href=&quot;\nhttp://ultraimg.com/image/DNmY&quot; rel=&quot;nofollow&quot; target=&quot;_NEW&quot;&gt;\nhttp://ultraimg.com/image/DNmY&lt;/a&gt; &lt;a href=&quot;\nhttp://ultraimg.com/image/DNmn&quot; rel=&quot;nofollow&quot; target=&quot;_NEW&quot;&gt;\nhttp://ultraimg.com/image/DNmn&lt;/a&gt; &lt;a href=&quot;\nhttp://ultraimg.com/image/DNmv&quot; rel=&quot;nofollow&quot; target=&quot;_NEW&quot;&gt;\nhttp://ultraimg.com/image/DNmv&lt;/a&gt; &lt;a href=&quot;\nhttp://ultraimg.com/image/DNmM&quot; rel=&quot;nofollow&quot; target=&quot;_NEW&quot;&gt;\nhttp://ultraimg.com/image/DNmM&lt;/a&gt; &lt;a href=&quot;\nhttp://ultraimg.com/image/DNmO&quot; rel=&quot;nofollow&quot; target=&quot;_NEW&quot;&gt;\nhttp://ultraimg.com/image/DNmO&lt;/a&gt; &lt;a href=&quot;\nhttp://ultraimg.com/image/DNmP&quot; rel=&quot;nofollow&quot; target=&quot;_NEW&quot;&gt;\nhttp://ultraimg.com/image/DNmP&lt;/a&gt; &lt;a href=&quot;\nhttp://ultraimg.com/image/DNmZ&quot; rel=&quot;nofollow&quot; target=&quot;_NEW&quot;&gt;\nhttp://ultraimg.com/image/DNmZ&lt;/a&gt; &lt;a href=&quot;\nhttp://ultraimg.com/image/DNmt&quot; rel=&quot;nofollow&quot; target=&quot;_NEW&quot;&gt;\nhttp://ultraimg.com/image/DNmt&lt;/a&gt; &lt;a href=&quot;\nhttp://ultraimg.com/image/DNm4&quot; rel=&quot;nofollow&quot; target=&quot;_NEW&quot;&gt;\nhttp://ultraimg.com/image/DNm4&lt;/a&gt; &lt;a href=&quot;\nhttp://ultraimg.com/image/DNmB&quot; rel=&quot;nofollow&quot; target=&quot;_NEW&quot;&gt;\nhttp://ultraimg.com/image/DNmB&lt;/a&gt;\n\n----------------------------------------------------------------------------------------------------\n\n\nEncoder Notes: Looking For Early Access To Anything You Can Provide DVDScr, R5, DVDR, BluRay, Direct\nAudio, Music Releases and Seedboxes. If You Got anything to offer please contact us.\n\nSupport us by donating BC - 1FgwdzPsd1y25Gea8wP1qni35uGCtmkRCD\n\nFace book Fan Page","torrent":{"xt":"urn:btih:858fc46dd58a700dd3a4dc8385345b58276213d5","amp;dn":"Extant.S02E05.HDTV.480p.x264.AAC-VYTO+%5BP2PDL%5D","amp;tr":["udp%3A%2F%2Ftracker.openbittorrent.com%3A80","udp%3A%2F%2Fopen.demonii.com%3A1337","udp%3A%2F%2Ftracker.coppersurfer.tk%3A6969","udp%3A%2F%2Fexodus.desync.com%3A6969"],"infoHash":"858fc46dd58a700dd3a4dc8385345b58276213d5","infoHashBuffer":{"type":"Buffer","data":[133,143,196,109,213,138,112,13,211,164,220,131,133,52,91,88,39,98,19,213]},"announce":[],"urlList":[]}}